<svg xmlns="http://www.w3.org/2000/svg" width="14.982" height="8.74" viewBox="0 0 14.982 8.74">
  <g id="Vector_Smart_Object_copy_22" data-name="Vector Smart Object copy 22" transform="translate(14.982 8.74) rotate(180)" opacity="0.6">
    <path id="Контур_12555" data-name="Контур 12555" d="M7.491,8.74a1.079,1.079,0,0,1-.771-.325l-6.4-6.52a1.126,1.126,0,0,1,0-1.57,1.077,1.077,0,0,1,1.541,0L7.491,6.061,13.122.325a1.077,1.077,0,0,1,1.541,0,1.126,1.126,0,0,1,0,1.57l-6.4,6.52A1.079,1.079,0,0,1,7.491,8.74Z" transform="translate(14.982 8.74) rotate(180)" fill="#fff"/>
  </g>
</svg>
